<?xml version="1.0" encoding="UTF-8" standalone="no"?>
<!-- Created with Inkscape (http://www.inkscape.org/) -->

<svg
   xmlns:dc="http://purl.org/dc/elements/1.1/"
   xmlns:cc="http://creativecommons.org/ns#"
   xmlns:rdf="http://www.w3.org/1999/02/22-rdf-syntax-ns#"
   xmlns:svg="http://www.w3.org/2000/svg"
   xmlns="http://www.w3.org/2000/svg"
   xmlns:sodipodi="http://sodipodi.sourceforge.net/DTD/sodipodi-0.dtd"
   xmlns:inkscape="http://www.inkscape.org/namespaces/inkscape"
   width="210mm"
   height="297mm"
   viewBox="0 0 210 297"
   version="1.1"
   id="svg8"
   inkscape:version="0.92.4 (5da689c313, 2019-01-14)"
   sodipodi:docname="drawing.svg">
  <defs
     id="defs2" />
  <sodipodi:namedview
     id="base"
     pagecolor="#ffffff"
     bordercolor="#666666"
     borderopacity="1.0"
     inkscape:pageopacity="0.0"
     inkscape:pageshadow="2"
     inkscape:zoom="0.35"
     inkscape:cx="485.08875"
     inkscape:cy="572.135"
     inkscape:document-units="mm"
     inkscape:current-layer="layer1"
     showgrid="false"
     inkscape:window-width="1536"
     inkscape:window-height="801"
     inkscape:window-x="-8"
     inkscape:window-y="-8"
     inkscape:window-maximized="1" />
  <metadata
     id="metadata5">
    <rdf:RDF>
      <cc:Work
         rdf:about="">
        <dc:format>image/svg+xml</dc:format>
        <dc:type
           rdf:resource="http://purl.org/dc/dcmitype/StillImage" />
        <dc:title></dc:title>
      </cc:Work>
    </rdf:RDF>
  </metadata>
  <g
     inkscape:label="Layer 1"
     inkscape:groupmode="layer"
     id="layer1">
    <path
       style="fill:#008000;stroke:#000000;stroke-width:0.3051281px;stroke-linecap:butt;stroke-linejoin:miter;stroke-opacity:1"
       d="M 25.512999,16.94203 88.315288,9.2089297 11.360367,7.4904567 13.129452,132.93855 H 89.199838 L 25.512999,120.90928 20.205756,72.792198 50.2801,71.073738 21.974841,64.199868 25.512999,16.94203"
       id="path3823"
       inkscape:connector-curvature="0"
       sodipodi:nodetypes="cccccccccc" />
    <path
       style="fill:#000080;stroke:#000000;stroke-width:0.26458332px;stroke-linecap:butt;stroke-linejoin:miter;stroke-opacity:1"
       d="m 205.61905,30.148812 -28.7262,-26.4583356 -37.79762,9.8273796 -12.85119,26.458336 26.45834,16.63095 29.48214,6.80357 15.875,20.41072 -17.38691,27.970228 -22.67857,13.60715 -28.72619,-12.85119 -5.29166,-25.702378 -3.77976,28.726188 39.30952,22.67857 32.50595,-20.41071 17.3869,-30.994048 -15.875,-26.45834 -9.82738,-8.31547 -29.48214,-8.31548 -13.60714,-9.07143 10.58333,-12.095236 23.43452,-6.04762 z"
       id="path4092"
       inkscape:connector-curvature="0"
       sodipodi:nodetypes="cccccccccccccccccccccc" />
    <path
       style="fill:#d40000;stroke:#000000;stroke-width:0.38883507px;stroke-linecap:butt;stroke-linejoin:miter;stroke-opacity:1"
       d="m 148.18106,176.68392 -31.21215,-19.92974 -26.753275,-3.32161 -24.52382,6.64324 -15.60607,13.2865 -14.49135,36.53787 11.14719,46.50272 39.01517,29.89462 57.965425,-8.85766 4.45888,13.2865 4.45888,-18.82254 -4.45888,-47.60994 -54.621255,4.42883 45.703495,9.96487 v 21.03695 l -49.047665,7.75046 -27.86799,-22.14416 -7.80302,-40.9667 14.49135,-29.89461 26.75326,-6.64325 27.867985,5.53604 z"
       id="path4094"
       inkscape:connector-curvature="0"
       sodipodi:nodetypes="cccccccccccccccccccccc" />
  </g>
</svg>
